<svg width="672" height="102" viewBox="0 0 672 102" fill="none" xmlns="http://www.w3.org/2000/svg">
<path d="M94.6086 18.3062V13.7522H96.0001L106.626 14.0052C112.783 14.0895 119.403 14.0895 126.487 14.0052L138.757 13.7522H140.402V18.3062V22.8602H135.089H129.776L140.908 49.0459C148.329 66.6716 152.04 75.4423 152.04 75.358L174.304 23.1132C174.304 22.9446 172.575 22.8602 169.118 22.8602H163.805V18.3062V13.7522H165.07L174.431 14.0052C179.828 14.0895 184.761 14.0895 189.231 14.0052C194.376 13.8365 196.99 13.7522 197.074 13.7522H198.086V18.3062V22.8602H191.635H185.057L168.865 61.1899C157.901 86.8274 152.377 99.7305 152.293 99.8991C151.871 100.574 151.197 101.08 150.269 101.417C149.426 101.67 147.191 101.712 143.564 101.544C142.974 101.544 142.595 101.501 142.426 101.417C141.498 101.08 140.824 100.574 140.402 99.8991C140.318 99.7305 134.794 86.8274 123.83 61.1899L107.638 22.8602H101.06H94.6086V18.3062Z" fill="black"/>
<path d="M0.762939 19.0652V14.5112H39.9782H79.3199V15.0171C79.4042 15.3545 80.0789 20.794 81.3439 31.3357C82.4402 41.6245 83.0727 47.064 83.2414 47.6543V48.1603H78.6874H74.1333L73.8803 46.0098C73.1213 40.5281 72.1093 36.3536 70.8443 33.4863C68.23 28.1732 63.3808 25.0107 56.2967 23.9987C54.0197 23.7457 49.7609 23.6192 43.5202 23.6192H35.5506V37.4078V51.3229H37.8276C41.707 51.3229 44.5322 50.859 46.3032 49.9313C47.7369 49.341 48.791 48.4133 49.4657 47.1483C50.6464 45.2087 51.2367 42.2148 51.2367 38.1668V36.5223H55.7907H60.3448V55.8769V75.2315H55.7907H51.2367V73.587C51.2367 69.539 50.6464 66.5451 49.4657 64.6054C48.791 63.3404 47.7369 62.4127 46.3032 61.8224C44.5322 60.8947 41.707 60.4309 37.8276 60.4309H35.5506V75.864V91.4236H43.7732C49.7609 91.4236 53.1342 91.3814 53.8932 91.2971C62.4953 90.7067 68.5673 87.9237 72.1093 82.948C72.531 82.442 73.0792 81.4722 73.7538 80.0385C75.2718 77.0868 76.579 72.4485 77.6754 66.1234C77.844 64.4368 78.0127 63.4247 78.1814 63.0874V62.7079H82.7354H87.2894V63.0874C87.2051 63.2561 86.2352 69.4124 84.3799 81.5565C82.5246 93.7849 81.5547 99.9834 81.4704 100.152V100.532H41.1167H0.762939V95.9776V91.4236H7.59398H14.425V57.5214V23.6192H7.59398H0.762939V19.0652Z" fill="black"/>
<path d="M229.696 12.3607H237.286H237.412C238.509 12.7824 239.141 13.2462 239.31 13.7522L269.67 90.7911L269.923 91.4236H276.754H283.459V95.9777V100.532H281.941L271.062 100.279C264.905 100.194 258.243 100.194 251.074 100.279L238.804 100.532H237.159V95.9777V91.4236H242.599L248.038 91.2971L245.761 85.6046L243.484 79.9121H227.925C217.552 79.9121 212.365 79.9542 212.365 80.0386L210.088 85.7311L207.938 91.2971C207.938 91.3815 209.751 91.4236 213.377 91.4236H218.69V95.9777V100.532H217.425L208.064 100.279C202.583 100.194 197.523 100.194 192.884 100.279L184.915 100.532H183.776V95.9777V91.4236H190.481H197.312L197.565 90.7911L227.925 13.7522C228.178 13.3305 228.768 12.8667 229.696 12.3607ZM233.997 55.6239L228.051 40.4439H227.925L216.034 70.804H228.051L239.942 70.6775L233.997 55.6239Z" fill="black"/>
<path d="M647.613 101.645C641.751 101.645 636.86 100.823 632.938 99.1781C629.017 97.4914 626.044 95.1933 624.02 92.2838C621.996 89.3321 620.921 85.9588 620.794 82.1637H630.282C630.493 86.0009 632.032 88.8894 634.899 90.829C637.809 92.7266 641.751 93.6753 646.727 93.6753C649.341 93.6753 651.745 93.2536 653.938 92.4103C656.13 91.567 657.88 90.4074 659.187 88.9315C660.495 87.4557 661.148 85.7901 661.148 83.9348C661.148 81.5734 660.284 79.7181 658.555 78.3687C656.826 77.0194 654.064 75.8387 650.269 74.8267L638.505 71.0317C633.402 69.4293 629.481 67.2367 626.74 64.4536C624.041 61.6285 622.692 58.2551 622.692 54.3336C622.692 49.4422 624.842 45.5207 629.143 42.569C633.445 39.6173 639.095 38.1415 646.095 38.1415C653.516 38.1415 659.272 39.6595 663.362 42.6955C667.452 45.7315 669.582 49.5266 669.75 54.0806H660.01C659.63 51.4241 658.281 49.4211 655.962 48.0718C653.642 46.6803 650.353 45.9845 646.095 45.9845C642.004 45.9845 638.8 46.9122 636.481 48.7676C634.204 50.5807 633.065 52.6047 633.065 54.8396C633.065 59.0141 636.649 62.0923 643.818 64.0741L655.835 68.1222C661.022 69.6823 664.985 71.7274 667.726 74.2574C670.509 76.7875 671.901 80.0132 671.901 83.9348C671.901 86.9708 670.91 89.8381 668.928 92.5368C666.946 95.2355 664.142 97.4282 660.516 99.1148C656.889 100.802 652.588 101.645 647.613 101.645Z" fill="black"/>
<path d="M596.887 101.645C593.598 101.645 590.646 101.012 588.032 99.7473C585.418 98.4823 583.351 96.5848 581.833 94.0548C580.315 91.5248 579.556 88.3622 579.556 84.5672V22.8349H589.297V84.3142C589.297 90.5549 592.207 93.6753 598.026 93.6753C599.754 93.6753 601.42 93.4855 603.022 93.106C604.667 92.7265 606.501 92.1573 608.525 91.3983L609.917 98.4823C607.766 99.41 605.616 100.169 603.465 100.759C601.357 101.35 599.164 101.645 596.887 101.645ZM569.816 46.4905V39.6595H608.399V46.4905H569.816Z" fill="black"/>
<path d="M544.958 100.127V64.5801C544.958 58.8033 543.566 54.4179 540.783 51.4241C538.043 48.3881 534.29 46.87 529.525 46.87C525.899 46.87 522.757 47.861 520.101 49.8428C517.444 51.8247 515.399 54.6709 513.965 58.3816C512.532 62.0501 511.815 66.4355 511.815 71.5377H508.02C508.02 64.4958 508.947 58.487 510.803 53.5113C512.658 48.5356 515.357 44.7406 518.899 42.1263C522.483 39.4698 526.826 38.1415 531.928 38.1415C536.693 38.1415 540.762 39.2168 544.136 41.3673C547.551 43.4756 550.166 46.5116 551.979 50.4753C553.792 54.439 554.699 59.1406 554.699 64.5801V100.127H544.958ZM501.948 100.127V39.6595H510.423L511.815 53.5746V100.127H501.948Z" fill="black"/>
<path d="M457.966 101.645C452.738 101.645 448.057 100.317 443.925 97.6601C439.834 94.9614 436.588 91.2296 434.184 86.4648C431.823 81.6999 430.642 76.2182 430.642 70.0197C430.642 63.3995 431.823 57.7069 434.184 52.9421C436.545 48.1772 439.771 44.5298 443.861 41.9998C447.994 39.4276 452.695 38.1415 457.966 38.1415C462.562 38.1415 466.484 39.0692 469.731 40.9245C472.978 42.7799 475.592 45.2888 477.574 48.4513C479.556 51.6138 480.926 55.198 481.685 59.2039C482.486 63.1676 482.718 67.2788 482.381 71.5377H438.612V65.4657H475.866L472.957 67.3632C473.083 64.8753 472.935 62.3875 472.514 59.8996C472.134 57.4118 471.396 55.1348 470.3 53.0686C469.204 50.9602 467.665 49.2736 465.683 48.0086C463.701 46.7435 461.171 46.111 458.093 46.111C454.213 46.111 450.967 47.102 448.352 49.0838C445.738 51.0657 443.777 53.68 442.47 56.9269C441.163 60.1315 440.509 63.6103 440.509 67.3632V71.4112C440.509 75.6279 441.142 79.4018 442.407 82.733C443.714 86.0642 445.653 88.6996 448.226 90.6393C450.798 92.579 454.045 93.5488 457.966 93.5488C461.888 93.5488 465.114 92.6001 467.644 90.7025C470.174 88.805 471.713 86.0009 472.261 82.2902H482.507C481.875 86.2961 480.441 89.7538 478.206 92.6633C475.972 95.5306 473.125 97.7444 469.668 99.3046C466.21 100.865 462.309 101.645 457.966 101.645Z" fill="black"/>
<path d="M362.846 39.6595H374.105L393.08 91.6513H391.688L410.663 39.6595H421.922L397.76 100.127H387.008L362.846 39.6595Z" fill="black"/>
<path d="M329.365 101.645C324.137 101.645 319.456 100.317 315.324 97.6601C311.234 94.9614 307.987 91.2296 305.583 86.4648C303.222 81.6999 302.041 76.2182 302.041 70.0197C302.041 63.3995 303.222 57.7069 305.583 52.9421C307.945 48.1772 311.17 44.5298 315.261 41.9998C319.393 39.4276 324.095 38.1415 329.365 38.1415C333.962 38.1415 337.883 39.0692 341.13 40.9245C344.377 42.7799 346.991 45.2888 348.973 48.4513C350.955 51.6138 352.325 55.198 353.084 59.2039C353.885 63.1676 354.117 67.2788 353.78 71.5377H310.011V65.4657H347.265L344.356 67.3632C344.482 64.8753 344.335 62.3875 343.913 59.8996C343.533 57.4118 342.796 55.1348 341.699 53.0686C340.603 50.9602 339.064 49.2736 337.082 48.0086C335.1 46.7435 332.57 46.111 329.492 46.111C325.613 46.111 322.366 47.102 319.751 49.0838C317.137 51.0657 315.176 53.68 313.869 56.9269C312.562 60.1315 311.908 63.6103 311.908 67.3632V71.4112C311.908 75.6279 312.541 79.4018 313.806 82.733C315.113 86.0642 317.053 88.6996 319.625 90.6393C322.197 92.579 325.444 93.5488 329.365 93.5488C333.287 93.5488 336.513 92.6001 339.043 90.7025C341.573 88.805 343.112 86.0009 343.66 82.2902H353.907C353.274 86.2961 351.84 89.7538 349.606 92.6633C347.371 95.5306 344.524 97.7444 341.067 99.3046C337.609 100.865 333.709 101.645 329.365 101.645Z" fill="black"/>
<g style="mix-blend-mode:multiply">
<path d="M295.837 0.0756397L346.065 50.3036L295.837 100.532L267.01 50.3036L295.837 0.0756397Z" fill="#FF9BE3"/>
</g>
<g style="mix-blend-mode:multiply">
<path d="M327.31 2.80565L358.474 66.6374L294.642 97.8016L283.716 40.9295L327.31 2.80565Z" fill="#979BFF"/>
</g>
</svg>
