<svg width="382" height="185" viewBox="0 0 382 185" fill="none" xmlns="http://www.w3.org/2000/svg">
<path d="M94.6084 18.3062V13.7522H95.9999L106.626 14.0052C112.782 14.0895 119.403 14.0895 126.487 14.0052L138.757 13.7522H140.402V18.3062V22.8602H135.089H129.776L140.908 49.0459C148.329 66.6716 152.04 75.4423 152.04 75.358L174.304 23.1132C174.304 22.9446 172.575 22.8602 169.117 22.8602H163.804V18.3062V13.7522H165.069L174.43 14.0052C179.828 14.0895 184.761 14.0895 189.231 14.0052C194.375 13.8365 196.99 13.7522 197.074 13.7522H198.086V18.3062V22.8602H191.634H185.056L168.864 61.1899C157.901 86.8274 152.377 99.7305 152.293 99.8991C151.871 100.574 151.196 101.08 150.269 101.417C149.425 101.67 147.191 101.712 143.564 101.544C142.974 101.544 142.594 101.501 142.426 101.417C141.498 101.08 140.823 100.574 140.402 99.8991C140.317 99.7305 134.793 86.8274 123.83 61.1899L107.638 22.8602H101.06H94.6084V18.3062Z" fill="black"/>
<path d="M0.762695 19.0652V14.5112H39.9779H79.3196V15.0171C79.404 15.3545 80.0786 20.794 81.3436 31.3357C82.44 41.6245 83.0725 47.064 83.2412 47.6543V48.1603H78.6871H74.1331L73.8801 46.0098C73.1211 40.5281 72.1091 36.3536 70.8441 33.4863C68.2297 28.1732 63.3805 25.0107 56.2965 23.9987C54.0195 23.7457 49.7606 23.6192 43.5199 23.6192H35.5504V37.4078V51.3229H37.8274C41.7068 51.3229 44.5319 50.859 46.3029 49.9313C47.7366 49.341 48.7908 48.4133 49.4655 47.1483C50.6461 45.2087 51.2365 42.2148 51.2365 38.1668V36.5223H55.7905H60.3445V55.8769V75.2315H55.7905H51.2365V73.587C51.2365 69.539 50.6461 66.5451 49.4655 64.6054C48.7908 63.3404 47.7366 62.4127 46.3029 61.8224C44.5319 60.8947 41.7068 60.4309 37.8274 60.4309H35.5504V75.864V91.4236H43.7729C49.7606 91.4236 53.134 91.3814 53.893 91.2971C62.495 90.7067 68.5671 87.9237 72.1091 82.948C72.5308 82.442 73.0789 81.4722 73.7536 80.0385C75.2716 77.0868 76.5788 72.4485 77.6751 66.1234C77.8438 64.4368 78.0125 63.4247 78.1811 63.0874V62.7079H82.7351H87.2892V63.0874C87.2048 63.2561 86.235 69.4124 84.3797 81.5565C82.5243 93.7849 81.5545 99.9834 81.4701 100.152V100.532H41.1164H0.762695V95.9776V91.4236H7.59373H14.4248V57.5214V23.6192H7.59373H0.762695V19.0652Z" fill="black"/>
<path d="M229.696 12.3607H237.286H237.412C238.509 12.7824 239.141 13.2462 239.31 13.7522L269.67 90.7911L269.923 91.4236H276.754H283.458V95.9777V100.532H281.94L271.061 100.279C264.905 100.194 258.243 100.194 251.074 100.279L238.804 100.532H237.159V95.9777V91.4236H242.599L248.038 91.2971L245.761 85.6046L243.484 79.9121H227.925C217.552 79.9121 212.365 79.9542 212.365 80.0386L210.088 85.7311L207.938 91.2971C207.938 91.3815 209.751 91.4236 213.377 91.4236H218.69V95.9777V100.532H217.425L208.064 100.279C202.582 100.194 197.522 100.194 192.884 100.279L184.914 100.532H183.776V95.9777V91.4236H190.48H197.311L197.564 90.7911L227.925 13.7522C228.178 13.3305 228.768 12.8667 229.696 12.3607ZM233.997 55.6239L228.051 40.4439H227.925L216.034 70.804H228.051L239.942 70.6775L233.997 55.6239Z" fill="black"/>
<path d="M346.687 184.678C340.826 184.678 335.934 183.855 332.013 182.211C328.091 180.524 325.118 178.226 323.094 175.317C321.07 172.365 319.995 168.992 319.869 165.197H329.356C329.567 169.034 331.106 171.922 333.973 173.862C336.883 175.759 340.826 176.708 345.801 176.708C348.416 176.708 350.819 176.286 353.012 175.443C355.205 174.6 356.954 173.44 358.262 171.964C359.569 170.489 360.222 168.823 360.222 166.968C360.222 164.606 359.358 162.751 357.629 161.402C355.9 160.052 353.138 158.872 349.343 157.86L337.579 154.065C332.477 152.462 328.555 150.27 325.814 147.487C323.115 144.661 321.766 141.288 321.766 137.366C321.766 132.475 323.917 128.554 328.218 125.602C332.519 122.65 338.169 121.174 345.169 121.174C352.59 121.174 358.346 122.692 362.436 125.728C366.526 128.764 368.656 132.559 368.824 137.113H359.084C358.704 134.457 357.355 132.454 355.036 131.105C352.717 129.713 349.428 129.017 345.169 129.017C341.079 129.017 337.874 129.945 335.555 131.8C333.278 133.614 332.139 135.638 332.139 137.872C332.139 142.047 335.723 145.125 342.892 147.107L354.909 151.155C360.096 152.715 364.06 154.76 366.8 157.29C369.583 159.82 370.975 163.046 370.975 166.968C370.975 170.004 369.984 172.871 368.002 175.57C366.02 178.268 363.216 180.461 359.59 182.148C355.964 183.834 351.663 184.678 346.687 184.678Z" fill="black"/>
<path d="M295.961 184.678C292.672 184.678 289.721 184.045 287.106 182.78C284.492 181.515 282.426 179.618 280.908 177.088C279.39 174.558 278.631 171.395 278.631 167.6V105.868H288.371V167.347C288.371 173.588 291.281 176.708 297.1 176.708C298.829 176.708 300.494 176.518 302.097 176.139C303.741 175.759 305.575 175.19 307.599 174.431L308.991 181.515C306.84 182.443 304.69 183.202 302.539 183.792C300.431 184.383 298.238 184.678 295.961 184.678ZM268.89 129.523V122.692H307.473V129.523H268.89Z" fill="black"/>
<path d="M244.032 183.16V147.613C244.032 141.836 242.641 137.451 239.858 134.457C237.117 131.421 233.364 129.903 228.599 129.903C224.973 129.903 221.831 130.894 219.175 132.876C216.518 134.858 214.473 137.704 213.04 141.414C211.606 145.083 210.889 149.468 210.889 154.571H207.094C207.094 147.529 208.022 141.52 209.877 136.544C211.732 131.568 214.431 127.773 217.973 125.159C221.557 122.503 225.9 121.174 231.003 121.174C235.767 121.174 239.837 122.25 243.21 124.4C246.625 126.508 249.24 129.544 251.053 133.508C252.866 137.472 253.773 142.173 253.773 147.613V183.16H244.032ZM201.022 183.16V122.692H209.498L210.889 136.607V183.16H201.022Z" fill="black"/>
<path d="M157.04 184.678C151.812 184.678 147.131 183.349 142.999 180.693C138.909 177.994 135.662 174.262 133.258 169.498C130.897 164.733 129.716 159.251 129.716 153.053C129.716 146.432 130.897 140.74 133.258 135.975C135.62 131.21 138.845 127.563 142.936 125.033C147.068 122.46 151.77 121.174 157.04 121.174C161.637 121.174 165.558 122.102 168.805 123.957C172.052 125.813 174.666 128.322 176.648 131.484C178.63 134.647 180 138.231 180.759 142.237C181.561 146.2 181.792 150.312 181.455 154.571H137.686V148.499H174.94L172.031 150.396C172.157 147.908 172.01 145.42 171.588 142.932C171.209 140.445 170.471 138.168 169.374 136.101C168.278 133.993 166.739 132.306 164.757 131.041C162.775 129.776 160.245 129.144 157.167 129.144C153.288 129.144 150.041 130.135 147.426 132.117C144.812 134.099 142.851 136.713 141.544 139.96C140.237 143.164 139.583 146.643 139.583 150.396V154.444C139.583 158.661 140.216 162.435 141.481 165.766C142.788 169.097 144.728 171.732 147.3 173.672C149.872 175.612 153.119 176.582 157.04 176.582C160.962 176.582 164.188 175.633 166.718 173.735C169.248 171.838 170.787 169.034 171.335 165.323H181.582C180.949 169.329 179.515 172.787 177.281 175.696C175.046 178.564 172.199 180.777 168.742 182.337C165.284 183.898 161.384 184.678 157.04 184.678Z" fill="black"/>
<path d="M61.9204 122.692H73.179L92.1541 174.684H90.7626L109.738 122.692H120.996L96.8346 183.16H86.082L61.9204 122.692Z" fill="black"/>
<path d="M28.4396 184.678C23.2109 184.678 18.5304 183.349 14.3981 180.693C10.3079 177.994 7.06101 174.262 4.6575 169.498C2.29615 164.733 1.11548 159.251 1.11548 153.053C1.11548 146.432 2.29615 140.74 4.6575 135.975C7.01884 131.21 10.2446 127.563 14.3348 125.033C18.4672 122.46 23.1688 121.174 28.4396 121.174C33.0358 121.174 36.9573 122.102 40.2042 123.957C43.451 125.813 46.0654 128.322 48.0472 131.484C50.0291 134.647 51.3995 138.231 52.1585 142.237C52.9597 146.2 53.1916 150.312 52.8543 154.571H9.08502V148.499H46.3395L43.43 150.396C43.5565 147.908 43.4089 145.42 42.9872 142.932C42.6077 140.445 41.8698 138.168 40.7734 136.101C39.6771 133.993 38.138 132.306 36.1562 131.041C34.1743 129.776 31.6443 129.144 28.5661 129.144C24.6868 129.144 21.4399 130.135 18.8256 132.117C16.2112 134.099 14.2505 136.713 12.9433 139.96C11.6361 143.164 10.9825 146.643 10.9825 150.396V154.444C10.9825 158.661 11.615 162.435 12.88 165.766C14.1872 169.097 16.1269 171.732 18.6991 173.672C21.2713 175.612 24.5181 176.582 28.4396 176.582C32.3612 176.582 35.5869 175.633 38.1169 173.735C40.6469 171.838 42.186 169.034 42.7342 165.323H52.9808C52.3483 169.329 50.9146 172.787 48.6797 175.696C46.4449 178.564 43.5986 180.777 40.1409 182.337C36.6833 183.898 32.7828 184.678 28.4396 184.678Z" fill="black"/>
<g style="mix-blend-mode:multiply">
<path d="M318.549 0.0756397L368.777 50.3036L318.549 100.532L289.722 50.3036L318.549 0.0756397Z" fill="#FF9BE3"/>
</g>
<g style="mix-blend-mode:multiply">
<path d="M350.022 2.80565L381.186 66.6374L317.354 97.8016L306.429 40.9295L350.022 2.80565Z" fill="#979BFF"/>
</g>
</svg>
